<svg width="16" height="16" viewBox="0 0 16 16" fill="none" xmlns="http://www.w3.org/2000/svg">
<path fill-rule="evenodd" clip-rule="evenodd" d="M13.9115 9.03221C13.8859 9.00512 13.8611 8.97688 13.8371 8.9475C13.3481 8.34724 12.5353 7.7131 11.7256 7.54406C11.3554 7.46678 10.9919 7.48588 10.6195 7.64242C10.2384 7.80264 9.74923 8.14908 9.21082 8.88539C8.42491 9.96017 7.53068 10.7079 6.54311 11.1231C5.54681 11.542 4.55641 11.5795 3.66138 11.3926C3.40264 11.3386 3.15199 11.2661 2.91033 11.1788C3.97078 12.8731 5.8538 14 8 14C10.9617 14 13.4223 11.8541 13.9115 9.03221ZM13.0897 4.82119C12.848 4.73388 12.5974 4.66138 12.3386 4.60736C11.4436 4.42052 10.4532 4.45802 9.45689 4.87688C8.46933 5.29206 7.57509 6.03982 6.78918 7.11461C6.25077 7.85092 5.76155 8.19736 5.38045 8.35758C5.00809 8.51412 4.6446 8.53322 4.27443 8.45594C3.46468 8.2869 2.65195 7.65276 2.16286 7.0525C2.13892 7.02312 2.11409 6.99487 2.08846 6.96778C2.57774 4.14594 5.03827 2 8 2C10.1462 2 12.0292 3.12685 13.0897 4.82119Z" fill="white"/>
<path d="M15 8C13.7703 6.49075 10.6486 4.37781 8 8C5.35135 11.6222 2.22973 9.50925 1 8" stroke="white" stroke-linecap="round"/>
</svg>
