<svg width="16" height="16" viewBox="0 0 16 16" fill="none" xmlns="http://www.w3.org/2000/svg">
<path fill-rule="evenodd" clip-rule="evenodd" d="M3.94502 8.55852C4.2137 8.74297 4.49761 8.88378 4.78056 8.9527C5.11812 9.03491 5.45616 9.01736 5.8126 8.84254C6.18511 8.65983 6.65198 8.2678 7.15268 7.46893C7.78711 6.4567 8.50606 5.75453 9.30669 5.36184C9.69764 5.17008 10.0899 5.06117 10.4746 5.01969C9.48776 4.25356 8.16139 3.95244 6.86847 4.3231C4.97546 4.8658 3.78464 6.66783 3.94502 8.55852ZM11.9503 7.37234C11.7131 7.22191 11.4659 7.10734 11.2195 7.04732C10.8819 6.9651 10.5438 6.98265 10.1874 7.15748C9.8149 7.34019 9.34803 7.73222 8.84733 8.53108C8.2129 9.54331 7.49395 10.2455 6.69332 10.6382C6.13329 10.9129 5.57055 11.0175 5.03133 10.9976C6.03843 12.0671 7.59348 12.55 9.10294 12.1172C11.1655 11.5259 12.3945 9.43949 11.9503 7.37234Z" fill="white"/>
<path d="M14 8C12.9459 6.49075 10.2703 4.37781 8 8C5.72973 11.6222 3.05405 9.50925 2 8" stroke="white" stroke-width="0.8" stroke-linecap="round"/>
</svg>
