<svg width="100" height="100" viewBox="0 0 100 100" fill="none" xmlns="http://www.w3.org/2000/svg">
<rect width="100" height="100" rx="32" fill="black"/>
<path fill-rule="evenodd" clip-rule="evenodd" d="M50 25C36.1929 25 25 36.1929 25 50C25 51.0156 25.0606 52.017 25.1783 53.0009C26.4691 53.4269 27.8218 53.7648 29.2157 53.9776C34.901 54.8454 41.3804 53.6698 47.5251 47.5251C55.3804 39.6698 64.151 37.9287 71.8407 39.1026C72.0829 39.1395 72.324 39.1794 72.5638 39.2219C68.5384 30.8101 59.9477 25 50 25ZM74.8217 46.999C74.9394 47.9829 75 48.9844 75 50C75 63.8071 63.8071 75 50 75C40.0523 75 31.4615 69.1899 27.4362 60.778C27.676 60.8206 27.9171 60.8604 28.1594 60.8974C35.849 62.0712 44.6196 60.3301 52.4749 52.4748C58.6196 46.3301 65.099 45.1545 70.7844 46.0224C72.1782 46.2352 73.5309 46.5731 74.8217 46.999Z" fill="white"/>
<mask id="path-3-inside-1_41_4029" fill="white">
<path fill-rule="evenodd" clip-rule="evenodd" d="M26 56.8764C33.2858 58.7567 42.0695 57.9729 50.0424 50C58.0153 42.0271 66.799 41.2434 74.0848 43.1236C74.7085 45.3083 75.0424 47.6151 75.0424 50C75.0424 63.8071 63.8495 75 50.0424 75C38.6201 75 28.987 67.3398 26 56.8764Z"/>
</mask>
<path fill-rule="evenodd" clip-rule="evenodd" d="M26 56.8764C33.2858 58.7567 42.0695 57.9729 50.0424 50C58.0153 42.0271 66.799 41.2434 74.0848 43.1236C74.7085 45.3083 75.0424 47.6151 75.0424 50C75.0424 63.8071 63.8495 75 50.0424 75C38.6201 75 28.987 67.3398 26 56.8764Z" fill="black"/>
<path d="M50.0424 50L53.5779 53.5356L50.0424 50ZM26 56.8764L27.2494 52.035L18.7953 49.8533L21.1921 58.249L26 56.8764ZM74.0848 43.1236L78.8927 41.7511L78.1067 38.9978L75.3342 38.2822L74.0848 43.1236ZM46.5069 46.4645C39.9806 52.9908 33.1067 53.5467 27.2494 52.035L24.7506 61.7178C33.4648 63.9667 44.1584 62.9551 53.5779 53.5356L46.5069 46.4645ZM75.3342 38.2822C66.62 36.0333 55.9264 37.045 46.5069 46.4645L53.5779 53.5356C60.1042 47.0093 66.9781 46.4534 72.8354 47.965L75.3342 38.2822ZM69.2769 44.4962C69.7744 46.2389 70.0424 48.084 70.0424 50L80.0424 50C80.0424 47.1463 79.6425 44.3777 78.8927 41.7511L69.2769 44.4962ZM70.0424 50C70.0424 61.0457 61.0881 70 50.0424 70L50.0424 80C66.6109 80 80.0424 66.5685 80.0424 50L70.0424 50ZM50.0424 70C40.9118 70 33.1983 63.8774 30.8079 55.5039L21.1921 58.249C24.7757 70.8022 36.3284 80 50.0424 80L50.0424 70Z" fill="white" mask="url(#path-3-inside-1_41_4029)"/>
<path d="M87 50C80.5 44.1666 64 36 50 50C36 64 19.5 55.8333 13 50" stroke="black" stroke-width="12" stroke-linecap="round"/>
<path d="M87 50C80.5 44.1666 64 36 50 50C36 64 19.5 55.8333 13 50" stroke="white" stroke-width="5" stroke-linecap="round"/>
</svg>
